<svg xmlns="http://www.w3.org/2000/svg" width="24" height="24" fill="none" viewBox="0 0 24 24"><mask id="mask0_150_106" style="mask-type:alpha" width="24" height="24" x="0" y="0" maskUnits="userSpaceOnUse"><rect width="24" height="24" fill="#D9D9D9"/></mask><g mask="url(#mask0_150_106)"><path fill="#1C1B1F" d="M11.8752 20C11.9419 20 12.0086 19.9833 12.0752 19.95C12.1419 19.9167 12.1919 19.8833 12.2252 19.85L20.4252 11.65C20.6252 11.45 20.7712 11.225 20.8632 10.975C20.9546 10.725 21.0002 10.475 21.0002 10.225C21.0002 9.95833 20.9546 9.704 20.8632 9.462C20.7712 9.22067 20.6252 9.00833 20.4252 8.825L16.1752 4.575C15.9919 4.375 15.7796 4.229 15.5382 4.137C15.2962 4.04567 15.0419 4 14.7752 4C14.5252 4 14.2752 4.04567 14.0252 4.137C13.7752 4.229 13.5502 4.375 13.3502 4.575L13.0752 4.85L14.9252 6.725C15.1752 6.95833 15.3586 7.225 15.4752 7.525C15.5919 7.825 15.6502 8.14167 15.6502 8.475C15.6502 9.175 15.4129 9.76233 14.9382 10.237C14.4629 10.7123 13.8752 10.95 13.1752 10.95C12.8419 10.95 12.5212 10.8917 12.2132 10.775C11.9046 10.6583 11.6336 10.4833 11.4002 10.25L9.52523 8.4L5.15023 12.775C5.10023 12.825 5.06257 12.8793 5.03723 12.938C5.01257 12.996 5.00023 13.0583 5.00023 13.125C5.00023 13.2583 5.05023 13.379 5.15023 13.487C5.25023 13.5957 5.3669 13.65 5.50023 13.65C5.5669 13.65 5.63357 13.6333 5.70023 13.6C5.7669 13.5667 5.8169 13.5333 5.85023 13.5L9.25023 10.1L10.6502 11.5L7.27523 14.9C7.22523 14.95 7.18757 15.004 7.16223 15.062C7.13757 15.1207 7.12523 15.1833 7.12523 15.25C7.12523 15.3833 7.17523 15.5 7.27523 15.6C7.37523 15.7 7.4919 15.75 7.62523 15.75C7.6919 15.75 7.75857 15.7333 7.82523 15.7C7.8919 15.6667 7.9419 15.6333 7.97523 15.6L11.3752 12.225L12.7752 13.625L9.40023 17.025C9.35023 17.0583 9.3129 17.1083 9.28823 17.175C9.2629 17.2417 9.25023 17.3083 9.25023 17.375C9.25023 17.5083 9.30023 17.625 9.40023 17.725C9.50023 17.825 9.6169 17.875 9.75023 17.875C9.8169 17.875 9.87957 17.8623 9.93823 17.837C9.99623 17.8123 10.0502 17.775 10.1002 17.725L13.5002 14.35L14.9002 15.75L11.5002 19.15C11.4502 19.2 11.4129 19.254 11.3882 19.312C11.3629 19.3707 11.3502 19.4333 11.3502 19.5C11.3502 19.6333 11.4046 19.75 11.5132 19.85C11.6212 19.95 11.7419 20 11.8752 20ZM11.8502 22C11.2336 22 10.6879 21.7957 10.2132 21.387C9.7379 20.979 9.45857 20.4667 9.37523 19.85C8.80857 19.7667 8.33357 19.5333 7.95023 19.15C7.5669 18.7667 7.33357 18.2917 7.25023 17.725C6.68357 17.6417 6.2129 17.4043 5.83823 17.013C5.4629 16.621 5.23357 16.15 5.15023 15.6C4.5169 15.5167 4.00023 15.2417 3.60023 14.775C3.20023 14.3083 3.00023 13.7583 3.00023 13.125C3.00023 12.7917 3.0629 12.4707 3.18823 12.162C3.3129 11.854 3.4919 11.5833 3.72523 11.35L9.52523 5.575L12.8002 8.85C12.8336 8.9 12.8836 8.93733 12.9502 8.962C13.0169 8.98733 13.0836 9 13.1502 9C13.3002 9 13.4252 8.95433 13.5252 8.863C13.6252 8.771 13.6752 8.65 13.6752 8.5C13.6752 8.43333 13.6629 8.36667 13.6382 8.3C13.6129 8.23333 13.5752 8.18333 13.5252 8.15L9.95023 4.575C9.7669 4.375 9.55423 4.229 9.31223 4.137C9.0709 4.04567 8.8169 4 8.55023 4C8.30023 4 8.05023 4.04567 7.80023 4.137C7.55023 4.229 7.32523 4.375 7.12523 4.575L3.60023 8.125C3.45023 8.275 3.32523 8.45 3.22523 8.65C3.12523 8.85 3.05857 9.05 3.02523 9.25C2.9919 9.45 2.9919 9.654 3.02523 9.862C3.05857 10.0707 3.12523 10.2667 3.22523 10.45L1.77523 11.9C1.4919 11.5167 1.28357 11.0957 1.15023 10.637C1.0169 10.179 0.966901 9.71667 1.00023 9.25C1.03357 8.78333 1.15023 8.329 1.35023 7.887C1.55023 7.44567 1.82523 7.05 2.17523 6.7L5.70023 3.175C6.10023 2.79167 6.54623 2.5 7.03823 2.3C7.52957 2.1 8.03357 2 8.55023 2C9.0669 2 9.5709 2.1 10.0622 2.3C10.5542 2.5 10.9919 2.79167 11.3752 3.175L11.6502 3.45L11.9252 3.175C12.3252 2.79167 12.7709 2.5 13.2622 2.3C13.7542 2.1 14.2586 2 14.7752 2C15.2919 2 15.7962 2.1 16.2882 2.3C16.7796 2.5 17.2169 2.79167 17.6002 3.175L21.8252 7.4C22.2086 7.78333 22.5002 8.225 22.7002 8.725C22.9002 9.225 23.0002 9.73333 23.0002 10.25C23.0002 10.7667 22.9002 11.2707 22.7002 11.762C22.5002 12.254 22.2086 12.6917 21.8252 13.075L13.6252 21.25C13.3919 21.4833 13.1209 21.6667 12.8122 21.8C12.5042 21.9333 12.1836 22 11.8502 22Z"/></g></svg>