<svg xmlns="http://www.w3.org/2000/svg" width="24" height="24" fill="none" viewBox="0 0 24 24"><mask id="mask0_150_128" style="mask-type:alpha" width="24" height="24" x="0" y="0" maskUnits="userSpaceOnUse"><rect width="24" height="24" fill="#D9D9D9"/></mask><g mask="url(#mask0_150_128)"><path fill="#1C1B1F" d="M17 23C18.6667 23 20.0833 22.4167 21.25 21.25C22.4167 20.0833 23 18.6667 23 17H21.5C21.5 18.25 21.0627 19.3127 20.188 20.188C19.3127 21.0627 18.25 21.5 17 21.5V23ZM1 7H2.5C2.5 5.75 2.93733 4.68733 3.812 3.812C4.68733 2.93733 5.75 2.5 7 2.5V1C5.33333 1 3.91667 1.58333 2.75 2.75C1.58333 3.91667 1 5.33333 1 7ZM3.525 20.475C1.85833 18.8083 1.025 16.8083 1.025 14.475C1.025 12.1417 1.85833 10.1417 3.525 8.475L7.05 4.925C7.53333 4.44167 8.12067 4.2 8.812 4.2C9.504 4.2 10.0917 4.44167 10.575 4.925C10.6417 4.99167 10.7043 5.05833 10.763 5.125C10.821 5.19167 10.8667 5.25833 10.9 5.325L13.425 2.8C13.9083 2.31667 14.496 2.075 15.188 2.075C15.8793 2.075 16.4667 2.31667 16.95 2.8C17.0333 2.88333 17.1 2.95833 17.15 3.025L17.3 3.225C17.7833 2.89167 18.325 2.75 18.925 2.8C19.525 2.85 20.0417 3.09167 20.475 3.525C20.8583 3.90833 21.0917 4.34567 21.175 4.837C21.2583 5.329 21.2 5.81667 21 6.3C21.1 6.35 21.196 6.40833 21.288 6.475C21.3793 6.54167 21.4667 6.61667 21.55 6.7C22.0333 7.18333 22.275 7.771 22.275 8.463C22.275 9.15433 22.0333 9.74167 21.55 10.225L21.15 10.625C21.2167 10.6583 21.2833 10.704 21.35 10.762C21.4167 10.8207 21.4833 10.8833 21.55 10.95C22.0333 11.4333 22.275 12.0207 22.275 12.712C22.275 13.404 22.0333 13.9917 21.55 14.475L15.525 20.475C13.8583 22.1417 11.8583 22.975 9.525 22.975C7.19167 22.975 5.19167 22.1417 3.525 20.475ZM4.925 19.075C5.55833 19.7083 6.275 20.1833 7.075 20.5C7.875 20.8167 8.69167 20.975 9.525 20.975C10.3583 20.975 11.175 20.8167 11.975 20.5C12.775 20.1833 13.4917 19.7083 14.125 19.075L20.125 13.05C20.225 12.95 20.275 12.8333 20.275 12.7C20.275 12.5667 20.225 12.45 20.125 12.35C20.025 12.25 19.9083 12.2 19.775 12.2C19.6417 12.2 19.525 12.25 19.425 12.35L15.9 15.9L14.475 14.475L20.125 8.825C20.225 8.725 20.275 8.604 20.275 8.462C20.275 8.32067 20.225 8.2 20.125 8.1C20.025 8.01667 19.9083 7.97067 19.775 7.962C19.6417 7.954 19.525 8 19.425 8.1L14.475 13.05L13.05 11.65L19.075 5.625C19.175 5.525 19.225 5.40833 19.225 5.275C19.225 5.14167 19.175 5.025 19.075 4.925C18.975 4.825 18.8583 4.775 18.725 4.775C18.5917 4.775 18.475 4.825 18.375 4.925L12.35 10.95L10.95 9.525L15.525 4.925C15.625 4.825 15.675 4.70833 15.675 4.575C15.675 4.44167 15.625 4.325 15.525 4.225C15.4417 4.125 15.3293 4.075 15.188 4.075C15.046 4.075 14.925 4.125 14.825 4.225L8.525 10.525C8.875 11.425 8.95833 12.3623 8.775 13.337C8.59167 14.3123 8.13333 15.1667 7.4 15.9L6 14.475C6.58333 13.8917 6.875 13.1833 6.875 12.35C6.875 11.5167 6.58333 10.8083 6 10.225L9.175 7.05C9.275 6.95 9.325 6.83333 9.325 6.7C9.325 6.56667 9.275 6.45 9.175 6.35C9.075 6.25 8.95833 6.204 8.825 6.212C8.69167 6.22067 8.575 6.26667 8.475 6.35L4.925 9.875C4.29167 10.5083 3.81667 11.225 3.5 12.025C3.18333 12.825 3.025 13.6417 3.025 14.475C3.025 15.3083 3.18333 16.125 3.5 16.925C3.81667 17.725 4.29167 18.4417 4.925 19.075Z"/></g></svg>