<svg width="24" height="24" viewBox="0 0 24 24" fill="none" xmlns="http://www.w3.org/2000/svg">
<mask id="mask0_157_32" style="mask-type:alpha" maskUnits="userSpaceOnUse" x="0" y="0" width="24" height="24">
<rect width="24" height="24" fill="#D9D9D9"/>
</mask>
<g mask="url(#mask0_157_32)">
<path d="M7.3 21C6.66667 21 6.125 20.7707 5.675 20.312C5.225 19.854 5 19.3083 5 18.675V9.4L3.175 5H1V3H4.525L6.175 7H20.95C21.3333 7 21.625 7.15833 21.825 7.475C22.025 7.79167 22.0333 8.11667 21.85 8.45L19 14.025C19.85 14.1583 20.5627 14.55 21.138 15.2C21.7127 15.85 22 16.6167 22 17.5C22 18.4667 21.6627 19.2917 20.988 19.975C20.3127 20.6583 19.4917 21 18.525 21C17.5417 21 16.7127 20.6583 16.038 19.975C15.3627 19.2917 15.025 18.4667 15.025 17.5C15.025 17.1667 15.0667 16.8583 15.15 16.575C15.2333 16.2917 15.35 16.0167 15.5 15.75L12.225 15.45L9.225 19.95C9.00833 20.2833 8.729 20.5417 8.387 20.725C8.04567 20.9083 7.68333 21 7.3 21ZM16.85 13.875L19.325 9L7 9.025L8.25 12C8.38333 12.3333 8.596 12.6123 8.888 12.837C9.17933 13.0623 9.51667 13.1917 9.9 13.225L16.85 13.875ZM7.325 18.975C7.35833 18.975 7.43333 18.9333 7.55 18.85L9.975 15.25C9.15833 15.1667 8.51667 14.9707 8.05 14.662C7.58333 14.354 7.23333 14.0333 7 13.7V18.7C7 18.7833 7.03333 18.85 7.1 18.9C7.16667 18.95 7.24167 18.975 7.325 18.975ZM18.5 19C18.9333 19 19.2917 18.854 19.575 18.562C19.8583 18.2707 20 17.9167 20 17.5C20 17.0667 19.8583 16.7083 19.575 16.425C19.2917 16.1417 18.9333 16 18.5 16C18.0833 16 17.7293 16.1417 17.438 16.425C17.146 16.7083 17 17.0667 17 17.5C17 17.9167 17.146 18.2707 17.438 18.562C17.7293 18.854 18.0833 19 18.5 19Z" fill="#1C1B1F"/>
</g>
</svg>
