<svg width="24" height="24" viewBox="0 0 24 24" fill="none" xmlns="http://www.w3.org/2000/svg">
<mask id="mask0_157_20" style="mask-type:alpha" maskUnits="userSpaceOnUse" x="0" y="0" width="24" height="24">
<rect width="24" height="24" fill="#D9D9D9"/>
</mask>
<g mask="url(#mask0_157_20)">
<path d="M5 10L4.05 7.95L2 7L4.05 6.05L5 4L5.95 6.05L8 7L5.95 7.95L5 10ZM18 7L17.375 5.625L16 5L17.375 4.375L18 3L18.625 4.375L20 5L18.625 5.625L18 7ZM20 11L19.375 9.625L18 9L19.375 8.375L20 7L20.625 8.375L22 9L20.625 9.625L20 11ZM12 15C11.1667 15 10.4583 14.7083 9.875 14.125C9.29167 13.5417 9 12.8333 9 12V6C9 5.16667 9.29167 4.45833 9.875 3.875C10.4583 3.29167 11.1667 3 12 3C12.8333 3 13.5417 3.29167 14.125 3.875C14.7083 4.45833 15 5.16667 15 6V12C15 12.8333 14.7083 13.5417 14.125 14.125C13.5417 14.7083 12.8333 15 12 15ZM11 22V18.925C9.26667 18.6917 7.83333 17.9167 6.7 16.6C5.56667 15.2833 5 13.75 5 12H7C7 13.3833 7.48767 14.5623 8.463 15.537C9.43767 16.5123 10.6167 17 12 17C13.3833 17 14.5627 16.5123 15.538 15.537C16.5127 14.5623 17 13.3833 17 12H19C19 13.75 18.4333 15.2833 17.3 16.6C16.1667 17.9167 14.7333 18.6917 13 18.925V22H11ZM12 13C12.2833 13 12.521 12.904 12.713 12.712C12.9043 12.5207 13 12.2833 13 12V6C13 5.71667 12.9043 5.479 12.713 5.287C12.521 5.09567 12.2833 5 12 5C11.7167 5 11.4793 5.09567 11.288 5.287C11.096 5.479 11 5.71667 11 6V12C11 12.2833 11.096 12.5207 11.288 12.712C11.4793 12.904 11.7167 13 12 13Z" fill="#1C1B1F"/>
</g>
</svg>
