<svg width="24" height="24" viewBox="0 0 24 24" fill="none" xmlns="http://www.w3.org/2000/svg">
<mask id="mask0_156_528" style="mask-type:alpha" maskUnits="userSpaceOnUse" x="0" y="0" width="24" height="24">
<rect width="24" height="24" fill="#D9D9D9"/>
</mask>
<g mask="url(#mask0_156_528)">
<path d="M5 20C3.58333 20 2.396 19.5207 1.438 18.562C0.479333 17.604 0 16.4167 0 15C0 13.5833 0.487667 12.396 1.463 11.438C2.43767 10.4793 3.61667 10 5 10C6.28333 10 7.36267 10.3833 8.238 11.15C9.11267 11.9167 9.66667 12.8667 9.9 14H10.55L8.75 9H7V7H12V9H10.9L11.25 10H16.05L14.6 6H12V4H14.6C15.0333 4 15.421 4.11667 15.763 4.35C16.1043 4.58333 16.35 4.9 16.5 5.3L18.2 9.95H19C20.3833 9.95 21.5627 10.4373 22.538 11.412C23.5127 12.3873 24 13.5667 24 14.95C24 16.35 23.5167 17.5417 22.55 18.525C21.5833 19.5083 20.4 20 19 20C17.8 20 16.746 19.625 15.838 18.875C14.9293 18.125 14.35 17.1667 14.1 16H9.9C9.66667 17.15 9.1 18.1043 8.2 18.863C7.3 19.621 6.23333 20 5 20ZM5 18C5.68333 18 6.271 17.8127 6.763 17.438C7.25433 17.0627 7.6 16.5833 7.8 16H5V14H7.8C7.6 13.4 7.25433 12.9167 6.763 12.55C6.271 12.1833 5.68333 12 5 12C4.15 12 3.43733 12.2877 2.862 12.863C2.28733 13.4377 2 14.15 2 15C2 15.8333 2.28733 16.5417 2.862 17.125C3.43733 17.7083 4.15 18 5 18ZM12.7 14H14.1C14.1833 13.6167 14.296 13.2583 14.438 12.925C14.5793 12.5917 14.7667 12.2833 15 12H11.95L12.7 14ZM19 18C19.85 18 20.5627 17.7083 21.138 17.125C21.7127 16.5417 22 15.8333 22 15C22 14.15 21.7127 13.4377 21.138 12.863C20.5627 12.2877 19.85 12 19 12H18.9L19.9 14.65L18 15.35L17.05 12.7C16.7167 12.9833 16.4583 13.3167 16.275 13.7C16.0917 14.0833 16 14.5167 16 15C16 15.8333 16.2877 16.5417 16.863 17.125C17.4377 17.7083 18.15 18 19 18Z" fill="#1C1B1F"/>
</g>
</svg>
